<?xml version="1.0" standalone="no"?><!-- Generator: Gravit.io --><svg xmlns="http://www.w3.org/2000/svg" xmlns:xlink="http://www.w3.org/1999/xlink" style="isolation:isolate" viewBox="0 0 764 226.342" width="764" height="226.342"><g id="Group"><rect x="0" y="0" width="64" height="24" transform="matrix(1,0,0,1,0,0)" fill="rgb(234,73,73)"/><rect x="64" y="0" width="64" height="24" transform="matrix(1,0,0,1,0,0)" fill="rgb(139,139,139)"/><rect x="0" y="24" width="128" height="168" transform="matrix(1,0,0,1,0,0)" fill="rgb(234,73,73)"/><rect x="136" y="58" width="128" height="61" transform="matrix(1,0,0,1,0,0)" fill="rgb(236,144,144)"/><rect x="136" y="127" width="128" height="65" transform="matrix(1,0,0,1,0,0)" fill="rgb(139,139,139)"/><rect x="136" y="0" width="128" height="50" transform="matrix(1,0,0,1,0,0)" fill="rgb(139,139,139)"/></g><g id="Group"><rect x="500" y="0" width="64" height="24" transform="matrix(1,0,0,1,0,0)" fill="rgb(139,139,139)"/><rect x="564" y="0" width="64" height="24" transform="matrix(1,0,0,1,0,0)" fill="rgb(234,73,73)"/><rect x="500" y="24" width="128" height="168" transform="matrix(1,0,0,1,0,0)" fill="rgb(234,73,73)"/><rect x="636" y="58" width="128" height="61" transform="matrix(1,0,0,1,0,0)" fill="rgb(236,144,144)"/><rect x="636" y="127" width="128" height="65" transform="matrix(1,0,0,1,0,0)" fill="rgb(139,139,139)"/><rect x="636" y="0" width="128" height="50" transform="matrix(1,0,0,1,0,0)" fill="rgb(139,139,139)"/></g><g id="Group"><rect x="0" y="210" width="16" height="16" transform="matrix(1,0,0,1,0,0)" fill="rgb(234,73,73)"/><g transform="matrix(1,0,0,1,22,210)"><text transform="matrix(1,0,0,1,0,12.826)" style="font-family:&quot;Open Sans&quot;;font-weight:400;font-size:12px;font-style:normal;fill:#000000;stroke:none;">Focused</text></g></g><g id="Group"><rect x="240" y="210" width="16" height="16" transform="matrix(1,0,0,1,0,0)" fill="rgb(139,139,139)"/><g transform="matrix(1,0,0,1,262,210)"><text transform="matrix(1,0,0,1,0,12.826)" style="font-family:&quot;Open Sans&quot;;font-weight:400;font-size:12px;font-style:normal;fill:#000000;stroke:none;">Not Focused</text></g></g><g id="Group"><rect x="120" y="210" width="16" height="16" transform="matrix(1,0,0,1,0,0)" fill="rgb(236,144,144)"/><g transform="matrix(1,0,0,1,142,210)"><text transform="matrix(1,0,0,1,0,12.826)" style="font-family:&quot;Open Sans&quot;;font-weight:400;font-size:12px;font-style:normal;fill:#000000;stroke:none;">Focus History</text></g></g><g transform="matrix(1,0,0,1,314.5,72.719)"><text transform="matrix(1,0,0,1,0,18.564)" style="font-family:&quot;Droid Sans Mono&quot;;font-weight:400;font-size:20px;font-style:normal;fill:#000000;stroke:none;">focus right</text></g><line x1="292" y1="96" x2="472" y2="96" vector-effect="non-scaling-stroke" stroke-width="1" stroke="rgb(0,0,0)" stroke-linejoin="miter" stroke-linecap="square" stroke-miterlimit="3"/><path d=" M 462 101 L 472 96 L 462 91 Z " fill="rgb(0,0,0)" stroke="none"/></svg>