<?xml version="1.0" standalone="no"?><!-- Generator: Gravit.io --><svg xmlns="http://www.w3.org/2000/svg" xmlns:xlink="http://www.w3.org/1999/xlink" style="isolation:isolate" viewBox="0 0 871 226.342" width="871" height="226.342"><g id="Group"><rect x="0" y="0" width="128" height="92" transform="matrix(1,0,0,1,0,0)" fill="rgb(30,116,255)"/><rect x="0" y="100" width="128" height="92" transform="matrix(1,0,0,1,0,0)" fill="rgb(139,139,139)"/><rect x="136" y="58" width="128" height="61" transform="matrix(1,0,0,1,0,0)" fill="rgb(139,139,139)"/><rect x="136" y="127" width="128" height="65" transform="matrix(1,0,0,1,0,0)" fill="rgb(139,139,139)"/><rect x="136" y="0" width="128" height="50" transform="matrix(1,0,0,1,0,0)" fill="rgb(152,172,204)"/><polygon points="99.875,25,136,4.143,136,45.857" fill="rgb(255,255,255)"/></g><g id="Group"><rect x="303.5" y="0" width="128" height="92" transform="matrix(1,0,0,1,0,0)" fill="rgb(152,172,204)"/><rect x="303.5" y="100" width="128" height="92" transform="matrix(1,0,0,1,0,0)" fill="rgb(74,134,232)"/><rect x="439.5" y="58" width="128" height="61" transform="matrix(1,0,0,1,0,0)" fill="rgb(139,139,139)"/><rect x="439.5" y="127" width="128" height="65" transform="matrix(1,0,0,1,0,0)" fill="rgb(139,139,139)"/><rect x="439.5" y="0" width="128" height="50" transform="matrix(1,0,0,1,0,0)" fill="rgb(139,139,139)"/><polygon points="367.5,128.125,346.643,92,388.357,92" fill="rgb(255,255,255)"/></g><g id="Group"><rect x="607" y="0" width="128" height="92" transform="matrix(1,0,0,1,0,0)" fill="rgb(139,139,139)"/><rect x="607" y="100" width="128" height="92" transform="matrix(1,0,0,1,0,0)" fill="rgb(152,172,204)"/><rect x="743" y="58" width="128" height="61" transform="matrix(1,0,0,1,0,0)" fill="rgb(139,139,139)"/><rect x="743" y="127" width="128" height="65" transform="matrix(1,0,0,1,0,0)" fill="rgb(139,139,139)"/><rect x="743" y="0" width="128" height="50" transform="matrix(1,0,0,1,0,0)" fill="rgb(74,134,232)"/><polygon points="771.125,146,735,166.857,735,125.143" fill="rgb(255,255,255)"/></g><g id="Group"><rect x="0" y="210" width="16" height="16" transform="matrix(1,0,0,1,0,0)" fill="rgb(74,134,232)"/><g transform="matrix(1,0,0,1,22,210)"><text transform="matrix(1,0,0,1,0,12.826)" style="font-family:&quot;Open Sans&quot;;font-weight:400;font-size:12px;font-style:normal;fill:#000000;stroke:none;">Focused</text></g></g><g id="Group"><rect x="120" y="210" width="16" height="16" transform="matrix(1,0,0,1,0,0)" fill="rgb(152,172,204)"/><g transform="matrix(1,0,0,1,142,210)"><text transform="matrix(1,0,0,1,0,12.826)" style="font-family:&quot;Open Sans&quot;;font-weight:400;font-size:12px;font-style:normal;fill:#000000;stroke:none;">Losing Focus</text></g></g><g id="Group"><rect x="240" y="210" width="16" height="16" transform="matrix(1,0,0,1,0,0)" fill="rgb(139,139,139)"/><g transform="matrix(1,0,0,1,262,210)"><text transform="matrix(1,0,0,1,0,12.826)" style="font-family:&quot;Open Sans&quot;;font-weight:400;font-size:12px;font-style:normal;fill:#000000;stroke:none;">Not Focused</text></g></g></svg>